<svg width="60.000000" height="63.000000" viewBox="0 0 60 63" fill="none" xmlns="http://www.w3.org/2000/svg" xmlns:xlink="http://www.w3.org/1999/xlink">
	<desc>
			Created with Pixso.
	</desc>
	<defs/>
	<path id="W" d="M16.02 29.22L11.41 29.22L15.76 40.84L12.6 48.98L5.32 29.14L0 29.14L10.18 54.7L14.47 54.7L18.93 43.98L23.43 54.7L27.72 54.7L37.94 29.14L32.54 29.14L25.3 48.98L22.06 40.84L26.46 29.22L21.88 29.22L18.93 37.68L16.02 29.22Z" fill="#FFFFFF" fill-opacity="1.000000" fill-rule="evenodd"/>
	<path id="W" d="M38.02 8.22L33.41 8.22L37.76 19.84L34.59 27.98L27.32 8.14L22 8.14L32.18 33.7L36.47 33.7L40.93 22.98L45.43 33.7L49.72 33.7L59.94 8.14L54.54 8.14L47.3 27.98L44.06 19.84L48.46 8.22L43.88 8.22L40.93 16.68L38.02 8.22Z" fill="#FFFFFF" fill-opacity="1.000000" fill-rule="evenodd"/>
</svg>
