<svg width="50.000000" height="50.000000" viewBox="0 0 50 50" fill="none" xmlns="http://www.w3.org/2000/svg" xmlns:xlink="http://www.w3.org/1999/xlink">
	<desc>
			Created with Pixso.
	</desc>
	<defs/>
	<path id="Vector" d="M48.43 30.45C45.72 31.11 43.5 32.38 41.63 34.18C40.25 31.84 38.31 29.6 36.59 27.58C35.49 26.29 34.11 24.4 32.29 24.03C32.5 23.88 32.67 23.65 32.75 23.34C32.99 22.43 33.39 21.6 34 20.87C34.3 20.52 34.68 20.21 35.04 19.91C35.21 19.78 35.42 19.71 35.57 19.56C35.78 19.36 35.88 19.07 36.01 18.82C37.87 16.86 39.47 14.16 40.89 12.18C42.8 9.5 45.46 5.37 43.3 2.17C40.96 -1.31 35.91 0.02 32.97 1.75C28.48 4.39 25.29 8.72 22.26 12.77C22.22 12.61 22.14 12.45 22.01 12.29C18.73 8.23 6.83 -2.71 1.48 3.97C-3.79 10.54 6.13 19.81 12.97 22.19C8.06 24.98 4.53 30.72 2.91 35.76C2.05 38.44 1.64 44.96 5.3 46.17C8.6 47.26 11.94 43.49 13.86 41.49C16.94 38.26 19.53 34.64 22.28 31.16C22.33 31.35 22.41 31.56 22.55 31.82C23.43 33.44 24.86 34.59 26.35 35.69C28.3 37.13 30.51 38.26 32.69 39.34C33.92 39.94 35.38 40.82 36.83 41.09C34.74 43.32 33.58 45.63 34.01 48.81C34.14 49.74 34.97 50.27 35.89 49.85C39.49 48.2 42.42 44.93 44.78 41.96C47.15 38.99 49.79 35.46 49.99 31.59C50.04 30.81 49.18 30.27 48.43 30.45ZM42.24 41.19C40.6 43.16 38.68 45.26 36.44 46.75C36.58 44.77 37.3 42.97 38.31 41.08C38.32 41.07 38.32 41.05 38.33 41.03C38.86 40.74 39.01 40.03 38.55 39.52C37.73 38.59 36.44 38.19 35.31 37.69C33.54 36.89 31.82 36.01 30.14 35.06C28.44 34.1 26.85 32.99 25.46 31.66C25.05 31.28 23.39 29.68 23.32 29.13C23.29 28.89 22.95 28.8 22.83 29.01C22.29 28.5 21.24 28.36 20.63 29.11C16.76 33.92 13.08 40.5 7.41 43.56C4.1 45.34 5.45 36.94 5.87 35.69C7.51 30.9 11.01 26.49 14.54 22.84C14.61 22.76 14.66 22.69 14.69 22.61C15.54 22.56 16.08 21.38 15.16 20.98C10.52 18.98 -0.03 11.47 3.37 5.78C6.64 0.29 17.94 11.66 20.23 13.99C20.76 14.53 21.38 14.46 21.8 14.12C22.05 14.43 22.58 14.58 22.91 14.24C25.79 11.35 28.63 8.47 31.75 5.83C33.44 4.4 35.31 3.15 37.51 2.61C39.7 2.07 41.69 3.47 41.29 5.58C40.69 8.73 37.99 11.69 36.03 14.16C35.14 15.28 33.25 16.94 32.92 18.56C32.73 18.68 32.54 18.81 32.36 18.95C31.17 19.86 30.47 21.27 30.06 22.63C29.72 23.78 30.93 24.47 31.86 24.23C31.87 24.4 32.12 24.46 32.23 24.31C31.42 25.42 34.15 28.53 34.84 29.53C36.44 31.85 38.08 34.25 39.83 36.47C39.81 37.35 41.16 38.12 41.88 37.31C43.46 35.53 45.1 34.18 47.21 33.33C46.36 36.22 44.06 39 42.24 41.19Z" fill="#00B2A0" fill-opacity="1.000000" fill-rule="nonzero"/>
</svg>
