<svg width="55.000000" height="50.000244" viewBox="0 0 55 50.0002" fill="none" xmlns="http://www.w3.org/2000/svg" xmlns:xlink="http://www.w3.org/1999/xlink">
	<desc>
			Created with Pixso.
	</desc>
	<defs/>
	<path id="Vector" d="M54.36 35.77C52.22 35.38 50.61 36.78 48.59 34.69C48.06 34.14 47.3 34.45 47.06 35.12C45.32 39.89 41.72 37.58 40.07 34.24C39.75 33.59 38.84 33.65 38.51 34.24C37.37 37.19 35.17 37.55 31.92 35.33C31.4 34.85 30.55 35.01 30.36 35.76C28.94 41.25 23.99 39.74 22.46 35.24C22.39 35.01 22.22 34.9 22.05 34.88C21.7 34.42 20.91 34.28 20.64 34.93C18.69 39.56 15.07 38.85 12.82 34.93C12.41 34.22 11.57 34.47 11.3 35.14C9.41 39.91 3.88 39.8 3.98 34.07C3.99 33.43 3.09 33.31 2.94 33.92C1.16 41.06 9.43 42.3 12.3 37.06C15.26 40.61 19.7 41.34 21.81 36.56C23.62 41.8 29.52 42.83 31.71 37.61C34.49 39.58 37.15 39.27 39.24 36.48C41.79 40.33 46.34 41.75 48.36 37C50.21 38.32 51.44 37.39 54.12 37.62C55.12 37.71 55.35 35.95 54.36 35.77Z" fill="#00B2A0" fill-opacity="1.000000" fill-rule="nonzero"/>
	<path id="Vector" d="M51.01 43.46C50.17 44.92 49.88 46.22 48.08 46.93C45.87 47.81 43.67 45.72 42.58 44C42.2 43.41 41.29 43.3 40.94 44C39.4 47.1 35.99 46.34 34.54 43.36C34.18 42.62 32.97 42.75 32.82 43.59C32 48.22 28.33 48.71 25.88 45.36C26.15 44.45 24.75 43.84 24.36 44.72C22.3 49.5 18.27 48.97 15.93 44.7C15.53 43.96 14.62 44.22 14.36 44.92C12.46 49.98 9.5 47.58 7.84 44.09C7.51 43.41 6.59 43.65 6.4 44.29C5.49 47.28 3.99 47.84 1.47 48.62C1 48.76 1.07 49.63 1.6 49.56C4.48 49.15 6.06 48.61 7.24 46.34C9.66 50.34 13.04 51.15 15.31 46.95C18.26 50.84 22.99 51.28 25.33 46.65C27.93 50.39 32.3 50.21 34.04 46.13C36.3 48.94 39.58 49.34 41.85 46.19C45.23 49.78 52.14 50.58 52.39 43.86C52.42 43.06 51.38 42.82 51.01 43.46Z" fill="#00B2A0" fill-opacity="1.000000" fill-rule="nonzero"/>
	<path id="Vector" d="M15.52 7.5C14.95 7.67 14.73 8.12 14.75 8.58C10.74 9.2 8.14 13.38 7.83 17.58C7.41 23.33 12.03 26.7 17.04 26.28C22.17 25.84 25.5 21 25.35 15.8C25.2 10.6 20.54 5.95 15.52 7.5ZM16.35 23.65C12.67 23.97 10.29 21.34 10.36 17.58C10.44 13.64 13.3 11.03 16.62 9.99C16.68 9.97 16.72 9.94 16.77 9.91C20 10.45 22.45 11.75 22.79 15.8C23.15 20 20.23 23.31 16.35 23.65Z" fill="#00B2A0" fill-opacity="1.000000" fill-rule="nonzero"/>
	<path id="Vector" d="M10.85 7.33C10.25 6.63 9.58 6.02 8.9 5.42C8.22 4.83 7.5 3.67 6.54 3.77C6.03 3.82 5.69 4.16 5.65 4.7C5.59 5.74 6.55 6.25 7.26 6.77C8.06 7.38 8.9 7.92 9.64 8.6C10.47 9.37 11.6 8.19 10.85 7.33Z" fill="#00B2A0" fill-opacity="1.000000" fill-rule="nonzero"/>
	<path id="Vector" d="M5.3 10.44C5.63 10.49 5.34 10.44 5.26 10.41C5.13 10.36 5 10.31 4.87 10.26C4.73 10.2 4.58 10.14 4.44 10.08C4.43 10.07 4.43 10.07 4.41 10.06C4.28 9.79 4.04 9.57 3.74 9.47C3.2 9.29 2.39 8.86 1.8 9.05C1.48 9.16 1.13 9.45 1.07 9.83C1.07 9.83 1.07 9.83 1.07 9.83C1.01 10.2 1.03 10.67 1.34 10.92C1.51 11.06 1.71 11.16 1.92 11.24C1.75 11.24 1.88 11.25 2.04 11.29C2.14 11.32 2.25 11.36 2.36 11.4C2.63 11.49 2.9 11.59 3.16 11.69C3.31 11.74 3.47 11.75 3.62 11.72C4.17 11.87 4.77 12.05 5.3 12.01C6.28 11.95 6.24 10.56 5.3 10.44Z" fill="#00B2A0" fill-opacity="1.000000" fill-rule="nonzero"/>
	<path id="Vector" d="M3.63 19.25C3.23 19.62 2.75 19.9 2.28 20.17C2.04 20.31 1.79 20.46 1.54 20.56C1.38 20.62 1.14 20.57 1.48 20.64C1.31 20.6 1.15 20.6 0.98 20.58C-0.44 20.42 -0.31 23.12 1.25 22.72C1.83 22.57 2.41 21.99 2.9 21.62C3.47 21.19 4.04 20.72 4.5 20.17C5.04 19.54 4.24 18.72 3.63 19.25Z" fill="#00B2A0" fill-opacity="1.000000" fill-rule="nonzero"/>
	<path id="Vector" d="M7.24 24.6C6.76 25.38 6.32 26.18 5.87 26.98C5.37 27.83 4.54 28.47 4.43 29.5C4.36 30.16 5.04 30.48 5.54 30.39C6.56 30.22 7.07 28.84 7.44 27.95C7.83 27.02 8.07 26.06 8.37 25.11C8.61 24.37 7.61 24 7.24 24.6Z" fill="#00B2A0" fill-opacity="1.000000" fill-rule="nonzero"/>
	<path id="Vector" d="M16.94 27.39C16.84 26.85 16.03 26.87 15.92 27.39C15.61 28.77 15.25 30.13 14.94 31.5C14.87 31.83 14.93 32.22 15.18 32.46C15.14 32.4 15.15 32.41 15.2 32.49C15.49 33 16.12 32.94 16.42 32.49C16.14 32.9 16.62 32.29 16.64 32.26C16.75 32.05 16.76 31.84 16.77 31.61C16.8 31.13 16.85 30.66 16.9 30.19C16.98 29.26 17.11 28.31 16.94 27.39Z" fill="#00B2A0" fill-opacity="1.000000" fill-rule="nonzero"/>
	<path id="Vector" d="M27.6 28.2C26.87 27.09 25.7 26.38 25.04 25.23C24.58 24.44 23.53 25.13 23.88 25.94C24.19 26.64 24.66 27.23 25.14 27.8C25.37 28.08 25.61 28.35 25.81 28.64C26.09 29.05 26.2 29.51 26.74 29.59C27.05 29.63 27.4 29.57 27.56 29.23C27.57 29.2 27.59 29.17 27.6 29.14C27.74 28.86 27.79 28.49 27.6 28.2Z" fill="#00B2A0" fill-opacity="1.000000" fill-rule="nonzero"/>
	<path id="Vector" d="M31.87 19.91C30.64 19.97 29.4 20.04 28.17 20.11C27.05 20.16 27.05 21.87 28.17 21.93C29.4 21.99 30.64 22.06 31.87 22.13C33.23 22.2 33.23 19.83 31.87 19.91Z" fill="#00B2A0" fill-opacity="1.000000" fill-rule="nonzero"/>
	<path id="Vector" d="M31.87 7.09C30.75 7.07 29.85 8.49 29.18 9.32C28.45 10.2 27.82 11.17 27.08 12.04C26.52 12.71 27.39 13.64 28.01 13.03C28.76 12.3 29.43 11.5 30.14 10.75C30.54 10.32 30.96 9.89 31.42 9.53C31.98 9.08 32.42 8.94 32.67 8.2C32.86 7.65 32.38 7.11 31.87 7.09Z" fill="#00B2A0" fill-opacity="1.000000" fill-rule="nonzero"/>
	<path id="Vector" d="M26.49 1.29C25.83 1.74 25.38 2.47 24.93 3.14C24.39 3.92 23.89 4.7 23.27 5.41C22.58 6.21 23.66 7.37 24.41 6.61C24.99 6.01 25.5 5.37 26.01 4.7C26.55 3.99 27.24 3.34 27.69 2.56C28.14 1.78 27.24 0.78 26.49 1.29Z" fill="#00B2A0" fill-opacity="1.000000" fill-rule="nonzero"/>
	<path id="Vector" d="M18.2 0.22C17.87 -0.08 17.45 -0.08 17.13 0.22C16.49 0.81 16.79 1.85 16.84 2.64C16.9 3.55 16.96 4.45 17.04 5.36C17.12 6.2 18.21 6.2 18.28 5.36C18.36 4.45 18.43 3.55 18.49 2.64C18.54 1.85 18.83 0.81 18.2 0.22Z" fill="#00B2A0" fill-opacity="1.000000" fill-rule="nonzero"/>
</svg>
