<svg width="50.000977" height="50.000000" viewBox="0 0 50.001 50" fill="none" xmlns="http://www.w3.org/2000/svg" xmlns:xlink="http://www.w3.org/1999/xlink">
	<desc>
			Created with Pixso.
	</desc>
	<defs/>
	<path id="Vector" d="M43.99 47.72C43.85 47.71 43.7 47.7 43.55 47.69C43.82 47.12 43.47 46.31 42.85 46.16C41.01 45.71 39.12 45.94 37.22 45.38C34.18 44.47 31.35 42.82 28.74 41.03C23.58 37.49 18.06 30.96 25.2 26.32C26.05 25.77 25.8 24.13 24.65 24.25C22.86 24.42 21.07 24.52 19.27 24.62C20.22 24.08 20.99 22.82 21.59 22.08C22.79 20.57 24.18 19.97 26.08 19.85C27.28 19.78 27.46 18.19 26.36 17.78C26.15 17.71 25.95 17.39 25.76 17.25C25.3 16.93 24.83 16.68 24.32 16.44C23.84 16.23 23.36 16.04 22.88 15.85C25.27 15.01 26.78 12.1 29.66 11.98C30.71 11.93 31.18 10.73 30.49 9.94C29.76 9.1 29.21 8.22 28.6 7.39C30.11 7.32 31.61 7.39 33.11 7.63C33.62 7.71 34.06 6.95 33.5 6.7C31.25 5.7 28.8 5.59 26.41 5.22C25.03 5.01 24.34 6.62 25.47 7.47C26.39 8.15 26.99 9.06 27.61 9.97C26.64 10.27 25.75 10.72 24.86 11.39C23.56 12.36 21.95 13.37 21.01 14.69C20.69 15.13 20.95 15.74 21.39 15.98C21.41 16.09 21.46 16.19 21.57 16.25C22.16 16.6 22.76 16.92 23.35 17.26C23.47 17.33 23.89 17.59 24.29 17.86C22.89 18.07 21.62 18.6 20.49 19.67C19.89 20.24 19.4 20.92 18.86 21.55C18.17 22.34 17.39 22.8 17.25 23.9C17.17 24.47 17.74 24.82 18.2 24.87C18.29 24.88 18.36 24.86 18.44 24.86C18.07 25.25 18.23 26.03 18.92 26.07C19.82 26.13 20.72 26.18 21.62 26.23C17.33 30.47 19.76 36.35 24.33 40.71C26 42.3 29.78 45.25 33.68 47.18C21.16 46.32 7.57 43.73 3.55 30.34C1.23 22.57 5.08 14.14 10.34 8.64C13.12 5.74 16.67 3.83 20.53 2.94C25.12 1.88 28.74 4 32.74 5.83C33.76 6.29 34.76 5.12 33.95 4.23C28.32 -2.01 18.66 -0.56 12.28 3.46C4.79 8.19 0.19 17.14 0 25.98C-0.2 35.16 6.78 43.25 14.76 46.62C24.09 50.56 34.12 50.23 43.99 49.65C45.21 49.57 45.21 47.79 43.99 47.72Z" fill="#00B2A0" fill-opacity="1.000000" fill-rule="nonzero"/>
	<path id="Vector" d="M49.8 44.14C48.88 41.99 47.31 40.17 45.49 38.58C45.5 34.9 45.55 31.22 45.52 27.55C45.52 27.41 45.5 27.29 45.48 27.18C45.61 25.8 45.51 24.45 45.27 23.1C45.27 23.1 45.27 23.1 45.28 23.1C46.13 22.86 46.83 22.15 47.51 21.6C48.06 21.16 48.61 20.71 49.12 20.22C49.23 20.14 49.32 20.04 49.42 19.95C50.91 18.49 48.65 16.2 47.16 17.65C46.94 17.86 46.7 18.06 46.46 18.26C46.3 18.39 46.14 18.52 45.98 18.65C45.9 18.71 45.81 18.78 45.73 18.85C45.96 18.67 45.53 19 45.54 19C45.2 19.26 44.83 19.51 44.48 19.78C44.24 18.94 43.93 18.04 43.47 17.34C43.85 17.16 44.22 16.96 44.54 16.73C45.9 15.76 47.09 14.08 46.44 12.31C46.06 11.26 45.33 10.52 44.41 9.95C44.2 9.82 43.98 9.71 43.76 9.59C43.62 9.35 43.48 9.13 43.29 8.92C43.21 8.82 43.12 8.74 43.03 8.66C43.06 8.38 42.9 8.08 42.56 8.1C42.42 8.1 42.28 8.1 42.14 8.1C41.77 7.98 41.41 7.98 41.06 8.06C39.92 8.02 38.86 8.03 37.86 8.94C37.19 9.55 36.89 10.33 36.88 11.17C35.95 13.43 35.69 16.22 38.09 17.52C38.48 17.73 38.91 17.86 39.34 17.95C39.09 18.81 38.9 19.68 38.75 20.56C37.19 20.91 35.58 21.81 34.26 22.36C32.33 22.97 33.13 26 35.1 25.45C36.21 25.13 37.28 24.67 38.35 24.24C38.3 25.09 38.27 25.95 38.26 26.82C38.26 27.01 38.31 27.22 38.4 27.42C38.12 28.28 37.83 29.26 37.65 30.23C37.4 31.11 37.14 31.99 36.87 32.86C34.23 31.4 30.74 29.86 28.48 31.39C28.47 31.38 28.46 31.37 28.46 31.36C27.63 30.24 25.9 31.18 26.58 32.48C30.81 40.59 39.19 45.15 47.82 46.76C49.42 47.06 50.44 45.6 49.8 44.14ZM30.92 34.27C31.22 34.34 31.53 34.44 31.83 34.52C31.79 34.76 31.83 35.01 31.96 35.23C31.99 35.27 32.02 35.32 32.05 35.37C31.67 35.01 31.29 34.65 30.92 34.27ZM39.59 34.46C39.68 34.4 39.76 34.34 39.83 34.25C40.38 33.58 40.5 32.82 40.61 32.02C41.09 30.99 41.51 29.94 41.87 28.86C42.06 28.89 42.26 28.91 42.46 28.93C42.46 31.38 42.46 33.84 42.48 36.29C41.52 35.64 40.54 35.03 39.59 34.46Z" fill="#00B2A0" fill-opacity="1.000000" fill-rule="nonzero"/>
</svg>
