<svg width="200.000000" height="15.000000" viewBox="0 0 200 15" fill="none" xmlns="http://www.w3.org/2000/svg" xmlns:xlink="http://www.w3.org/1999/xlink">
	<desc>
			Created with Pixso.
	</desc>
	<defs/>
	<path id="Vector" d="M194.6 1.23C191.33 4.29 190.2 7.04 183.18 8.54C174.55 10.39 165.96 5.98 161.7 2.37C160.24 1.12 156.67 0.88 155.3 2.37C149.3 8.88 135.99 7.29 130.31 1.01C128.91 -0.54 124.19 -0.26 123.61 1.51C120.42 11.25 106.09 12.28 96.5 5.22C97.54 3.32 92.08 2.02 90.59 3.88C82.54 13.96 66.81 12.83 57.68 3.84C56.1 2.28 52.55 2.83 51.53 4.3C44.11 14.97 32.55 9.9 26.07 2.55C24.81 1.12 21.21 1.62 20.45 2.97C16.9 9.28 11.07 10.46 1.23 12.09C-0.62 12.4 -0.33 14.23 1.7 14.07C12.97 13.22 19.12 12.07 23.73 7.29C33.19 15.71 46.4 17.43 55.26 8.57C66.75 16.77 85.21 17.71 94.36 7.95C104.52 15.83 121.56 15.44 128.38 6.86C137.19 12.77 150 13.61 158.86 6.98C172.05 14.54 199.03 16.24 199.99 2.06C200.11 0.37 196.05 -0.13 194.6 1.23Z" fill="#00B2A0" fill-opacity="1.000000" fill-rule="nonzero"/>
</svg>
