<svg width="293.000000" height="15.000000" viewBox="0 0 293 15" fill="none" xmlns="http://www.w3.org/2000/svg" xmlns:xlink="http://www.w3.org/1999/xlink">
	<desc>
			Created with Pixso.
	</desc>
	<defs/>
	<path id="Vector" d="M285.1 1.23C280.3 4.29 278.64 7.04 268.37 8.54C255.72 10.39 243.13 5.98 236.9 2.37C234.75 1.12 229.53 0.88 227.52 2.37C218.72 8.88 199.22 7.29 190.9 1.01C188.86 -0.54 181.94 -0.26 181.09 1.51C176.42 11.25 155.43 12.28 141.37 5.22C142.9 3.32 134.9 2.02 132.72 3.88C120.92 13.96 97.88 12.83 84.51 3.84C82.19 2.28 76.99 2.83 75.49 4.3C64.62 14.97 47.69 9.9 38.2 2.55C36.35 1.12 31.07 1.62 29.96 2.97C24.76 9.28 16.21 10.46 1.81 12.09C-0.91 12.4 -0.49 14.23 2.5 14.07C19 13.22 28.02 12.07 34.77 7.29C48.63 15.71 67.98 17.43 80.96 8.57C97.8 16.77 124.84 17.71 138.24 7.95C153.13 15.83 178.09 15.44 188.08 6.86C200.98 12.77 219.75 13.61 232.73 6.98C252.06 14.54 291.58 16.24 292.99 2.06C293.17 0.37 287.22 -0.13 285.1 1.23Z" fill="#00B2A0" fill-opacity="1.000000" fill-rule="nonzero"/>
</svg>
