<svg width="247.000000" height="15.000000" viewBox="0 0 247 15" fill="none" xmlns="http://www.w3.org/2000/svg" xmlns:xlink="http://www.w3.org/1999/xlink">
	<desc>
			Created with Pixso.
	</desc>
	<defs/>
	<path id="Vector" d="M240.34 1.23C236.29 4.29 234.89 7.04 226.23 8.54C215.57 10.39 204.96 5.98 199.71 2.37C197.89 1.12 193.5 0.88 191.8 2.37C184.38 8.88 167.94 7.29 160.93 1.01C159.21 -0.54 153.38 -0.26 152.66 1.51C148.72 11.25 131.02 12.28 119.17 5.22C120.47 3.32 113.72 2.02 111.88 3.88C101.93 13.96 82.51 12.83 71.24 3.84C69.28 2.28 64.9 2.83 63.64 4.3C54.47 14.97 40.21 9.9 32.2 2.55C30.64 1.12 26.19 1.62 25.25 2.97C20.88 9.28 13.67 10.46 1.52 12.09C-0.76 12.4 -0.41 14.23 2.1 14.07C16.02 13.22 23.62 12.07 29.31 7.29C40.99 15.71 57.3 17.43 68.25 8.57C82.44 16.77 105.24 17.71 116.54 7.95C129.09 15.83 150.13 15.44 158.55 6.86C169.43 12.77 185.25 13.61 196.19 6.98C212.49 14.54 245.8 16.24 246.99 2.06C247.14 0.37 242.12 -0.13 240.34 1.23Z" fill="#00B2A0" fill-opacity="1.000000" fill-rule="nonzero"/>
</svg>
