<svg width="50.000000" height="50.000000" viewBox="0 0 50 50" fill="none" xmlns="http://www.w3.org/2000/svg" xmlns:xlink="http://www.w3.org/1999/xlink">
	<desc>
			Created with Pixso.
	</desc>
	<defs>
		<clipPath id="clip1_224">
			<rect id="vector" width="50.000000" height="50.000000" fill="white" fill-opacity="0"/>
		</clipPath>
	</defs>
	<rect id="vector" width="50.000000" height="50.000000" fill="#FFFFFF" fill-opacity="0"/>
	<g clip-path="url(#clip1_224)">
		<path id="Shape" d="M45.3906 16.7954L43.7566 18.4294C40.2162 15.3435 35.6766 13.6174 30.9566 13.6174C27.7787 13.6174 24.6025 14.4346 21.8792 15.8865L28.7779 8.98779C29.3226 9.35034 29.9575 9.53247 30.5941 9.53247C31.5013 9.53247 32.4102 9.16992 33.1353 8.44312C34.5872 6.99121 34.5872 4.72046 33.1353 3.26855C32.4085 2.54175 31.5013 2.1792 30.5941 2.1792C29.6868 2.1792 28.7779 2.54175 28.0528 3.26855C26.8732 4.54004 26.691 6.35449 27.5081 7.71631L18.7932 16.4312L17.1592 14.7971L12.7115 19.2446L14.3455 20.8787L5.44855 29.7759C4.90381 29.4133 4.26892 29.2312 3.63232 29.2312C2.7251 29.2312 1.81616 29.5938 1.09106 30.3206C-0.36084 31.7725 -0.36084 34.043 1.09106 35.4949C1.81787 36.1299 2.7251 36.4941 3.63232 36.4941C4.53961 36.4941 5.44855 36.1316 6.17365 35.4048C7.35321 34.2251 7.53534 32.4089 6.71832 30.957L13.617 24.0583C9.98639 31.0491 10.8034 39.7639 16.1583 45.9358L14.5243 47.6602L19.0638 52.1077L23.5115 47.6602L19.0638 43.2124L17.52 44.7563C12.2553 38.5825 11.983 29.6873 16.4307 23.1511L17.1575 23.8779L21.697 19.4302L20.88 18.7034C23.7855 16.615 27.326 15.5256 30.9566 15.5256C35.2238 15.5256 39.217 17.0693 42.4851 19.7927L40.8511 21.3367L45.3906 25.7844L49.8383 21.3367L45.3906 16.7971L45.3906 16.7954ZM29.3226 4.63013C29.6851 4.26758 30.1396 4.08545 30.5941 4.08545C31.0485 4.08545 31.5013 4.26758 31.8655 4.63013C32.5923 5.35693 32.5923 6.44629 31.8655 7.17139C31.503 7.53394 31.0485 7.71606 30.5941 7.71606C30.1396 7.71606 29.6868 7.53394 29.3226 7.17139C28.5958 6.53662 28.5958 5.35522 29.3226 4.63013ZM17.0673 21.3333L15.1609 19.427L17.0673 17.5205L18.9736 19.427L17.0673 21.3333ZM43.4843 21.3333L45.3906 23.2395L47.297 21.3333L45.3906 19.4268L43.4843 21.3333ZM3.63062 34.6777C4.08508 34.6777 4.53955 34.4956 4.9021 34.1331L4.9021 34.1313C5.62897 33.4963 5.62897 32.3169 4.9021 31.5901C4.5379 31.2275 4.08508 31.0454 3.63062 31.0454C3.17615 31.0454 2.72168 31.2258 2.35913 31.5901C1.99658 31.9543 1.81445 32.407 1.81445 32.8616C1.81445 33.4062 1.99658 33.8606 2.35913 34.1331C2.72339 34.4956 3.17615 34.6777 3.63062 34.6777ZM19.0638 49.5664L20.9702 47.6602L19.0638 45.7537L17.1575 47.6602L19.0638 49.5664Z" clip-rule="evenodd" fill="#333333" fill-opacity="1.000000" fill-rule="evenodd"/>
	</g>
</svg>
