<svg width="20.000000" height="68.806641" viewBox="0 0 20 68.8066" fill="none" xmlns="http://www.w3.org/2000/svg" xmlns:xlink="http://www.w3.org/1999/xlink">
	<desc>
			Created with Pixso.
	</desc>
	<defs/>
	<path id="Vector" d="M19.83 43.76C19.07 29.74 16.11 13.81 11.41 1.77C11.72 1.04 11.24 -0.22 10.61 0.03C3.22 2.98 1.14 23.56 0.38 33.39C-0.45 44.23 -0.69 64.73 7.76 68.31C11.24 69.79 15.37 67.89 17.6 63.29C20.19 57.93 20.18 50.2 19.83 43.76ZM16.84 34.02C14.55 33.46 11.37 34.54 10.02 34.84C9.47 34.96 8.94 35.11 8.41 35.26C8.47 25.05 9.31 14.78 10.15 4.68C12.15 10.87 15.17 22.55 16.84 34.02ZM15.6 37.72C15.53 37.92 15.46 38.11 15.41 38.27C15.25 38.07 15.09 37.86 14.92 37.65C15.15 37.67 15.37 37.7 15.6 37.72ZM2.38 34.44C2.9 25.9 4.33 11.05 8.98 4.42C7.02 14.09 6.06 25.07 6.15 35.97C6.02 36.01 5.9 36.07 5.77 36.12C5.55 36.01 5.3 36.01 5.06 36.21C4.94 36.31 4.84 36.44 4.73 36.54C3.88 36.9 3.04 37.28 2.21 37.73C2.26 36.49 2.32 35.37 2.38 34.44ZM8.91 65.23C4.22 64.74 2.64 56.5 2.23 48.28C2.34 48.38 2.46 48.45 2.58 48.47C2.61 48.53 2.66 48.56 2.71 48.51C2.72 48.5 2.73 48.49 2.74 48.48C2.96 48.46 3.18 48.32 3.38 48C3.43 47.91 3.49 47.83 3.54 47.74C4.48 46.95 5.49 46.37 6.53 45.94C7 52.69 7.89 59.25 9.24 65.25C9.13 65.24 9.02 65.24 8.91 65.23ZM11.3 65.12C11.29 65.07 11.29 65.03 11.28 64.98C9.78 58.52 8.97 51.91 8.62 45.23C9.19 45.07 9.77 44.94 10.33 44.82C12.97 44.27 15.41 45.3 17.96 45.14C18.46 55.5 16.96 63.89 11.3 65.12Z" fill="#FFFFFF" fill-opacity="1.000000" fill-rule="nonzero"/>
</svg>
