<svg width="79.103119" height="63.997559" viewBox="0 0 79.1031 63.9976" fill="none" xmlns="http://www.w3.org/2000/svg" xmlns:xlink="http://www.w3.org/1999/xlink">
	<desc>
			Created with Pixso.
	</desc>
	<defs/>
	<path id="OM" d="M9.35 54.05Q12.06 55.28 15.34 55.28Q18.45 55.28 21.07 54.15Q21.64 53.91 22.18 53.61Q24 52.61 25.35 51.17Q26.27 50.19 26.97 49Q27.37 48.31 27.68 47.58Q28.7 45.2 28.7 42.39Q28.7 39.61 27.7 37.26Q27.39 36.5 26.97 35.79Q26.26 34.58 25.33 33.59Q23.98 32.17 22.18 31.18Q21.61 30.87 21.03 30.62Q18.42 29.5 15.34 29.5Q12.09 29.5 9.39 30.72Q8.92 30.93 8.46 31.18Q6.77 32.11 5.48 33.43Q4.44 34.49 3.66 35.81Q3.14 36.68 2.78 37.61Q1.92 39.83 1.92 42.39Q1.92 44.98 2.8 47.23Q3.16 48.13 3.66 48.98Q4.43 50.28 5.45 51.34Q6.75 52.67 8.46 53.61Q8.9 53.85 9.35 54.05ZM57.53 36.63L57.57 54.99L61.03 54.99L60.98 29.79L58.04 29.79L47.67 47.5L37.16 29.79L34.2 29.79L34.2 54.99L37.66 54.99L37.66 36.74L46.77 51.93L48.43 51.93L57.53 36.63ZM19.53 51.22Q17.63 52.07 15.34 52.07Q13.19 52.07 11.35 51.32Q10.82 51.1 10.32 50.82Q9.14 50.16 8.23 49.24Q7.4 48.4 6.79 47.35Q6.48 46.82 6.25 46.25Q5.51 44.47 5.51 42.39Q5.51 40.34 6.23 38.59Q6.47 38 6.79 37.44Q7.4 36.39 8.23 35.55Q9.14 34.63 10.32 33.97Q10.82 33.69 11.35 33.47Q13.19 32.71 15.34 32.71Q17.63 32.71 19.53 33.57Q19.94 33.75 20.33 33.97Q21.41 34.58 22.27 35.42Q23.17 36.31 23.82 37.44Q24.14 38 24.38 38.59Q25.09 40.34 25.09 42.39Q25.09 44.47 24.36 46.25Q24.12 46.82 23.82 47.35Q23.17 48.48 22.27 49.36Q21.41 50.2 20.33 50.82Q19.94 51.04 19.53 51.22Z" fill="#333333" fill-opacity="1.000000" fill-rule="evenodd"/>
	<path id="Vector" d="M76.67 19.62L75.26 19.19C75.06 19.13 74.86 19.19 74.72 19.34C74.38 19.73 74 20.09 73.6 20.43C70.64 22.95 66.92 23.81 62.85 22.92C58.79 22.03 56.93 19.69 54.35 16.44C54.16 16.21 53.98 15.97 53.78 15.73C53.76 15.7 53.74 15.67 53.71 15.63C53.64 15.53 53.55 15.4 53.42 15.28C53.25 15.12 53.07 14.96 52.87 14.82C52.47 14.53 52.2 14.08 52.13 13.57L51.7 10.25C51.68 10.11 51.6 9.97 51.49 9.88C51.38 9.79 51.24 9.74 51.1 9.76L48.96 9.94C48.66 9.97 48.46 10.23 48.5 10.53L48.91 13.72C48.96 14.07 48.85 14.42 48.6 14.69C48.23 15.1 48.05 15.61 48.06 16.16C48.23 23.11 52.89 28.25 60.52 29.92C63.82 30.64 67.32 30.21 70.39 28.71C71.01 28.41 71.59 28.07 72.14 27.7C72.9 27.18 73.6 26.59 74.22 25.95C75.32 24.79 76.12 23.5 76.6 22.11C76.81 21.51 76.97 20.89 77.07 20.26C77.12 19.98 76.94 19.71 76.67 19.62ZM49.63 10.98L50.71 10.89L51 13.09L50.56 13.1L49.91 13.12L49.63 10.98ZM71.53 26.78C68.56 28.8 64.52 29.69 60.7 28.86C53.61 27.31 49.28 22.57 49.13 16.19C49.12 15.84 49.28 15.6 49.41 15.45C49.72 15.1 49.92 14.66 49.98 14.21L51.18 14.18C51.38 14.79 51.76 15.33 52.29 15.7C52.43 15.81 52.57 15.92 52.7 16.05C52.75 16.1 52.8 16.17 52.86 16.24C52.89 16.29 52.93 16.34 52.97 16.39C53.16 16.63 53.35 16.87 53.53 17.1C56.15 20.4 58.23 23.01 62.67 23.98C64.9 24.47 67.04 24.47 69.06 23.98C70.88 23.54 72.56 22.7 74.05 21.5L74.09 21.52L74.28 21.61C73.51 22.8 72.53 23.8 71.39 24.57C68.9 26.26 65.66 26.87 62.31 26.14C57.1 25.01 53.39 22.2 51.86 18.25C51.75 17.97 51.44 17.81 51.17 17.91C50.89 18.01 50.76 18.32 50.87 18.61C52.54 22.93 56.54 25.99 62.14 27.21C64.86 27.8 67.57 27.59 69.97 26.58C70.7 26.28 71.39 25.91 72.02 25.47C73.33 24.59 74.43 23.44 75.27 22.09L75.42 22.17C74.66 24.01 73.28 25.59 71.53 26.78ZM75.77 21.15L75.55 21.04L74.92 20.73C75.05 20.6 75.18 20.47 75.31 20.33L75.92 20.52C75.88 20.73 75.82 20.94 75.77 21.15Z" fill="#000000" fill-opacity="1.000000" fill-rule="nonzero"/>
</svg>
